<svg width="50" height="50" viewBox="0 0 50 50" fill="none" xmlns="http://www.w3.org/2000/svg">
<rect width="50" height="50" fill="#F5F5F5"/>
<g id="Real Trust" clip-path="url(#clip0_0_1)">
<rect width="1920" height="6605" transform="translate(-1524 -2139)" fill="white"/>
<ellipse id="Ellipse 16" cx="25.1908" cy="25" rx="50.1908" ry="50" fill="#217BF4" fill-opacity="0.05"/>
<g id="circle-dollar-sign">
<path id="Vector" d="M24.9998 45.8333C36.5058 45.8333 45.8332 36.5059 45.8332 25C45.8332 13.4941 36.5058 4.16666 24.9998 4.16666C13.4939 4.16666 4.1665 13.4941 4.1665 25C4.1665 36.5059 13.4939 45.8333 24.9998 45.8333Z" stroke="#217BF4" stroke-width="3" stroke-linecap="round" stroke-linejoin="round"/>
<path id="Vector_2" d="M33.3332 16.6667H20.8332C19.7281 16.6667 18.6683 17.1056 17.8869 17.887C17.1055 18.6684 16.6665 19.7283 16.6665 20.8333C16.6665 21.9384 17.1055 22.9982 17.8869 23.7796C18.6683 24.561 19.7281 25 20.8332 25H29.1665C30.2716 25 31.3314 25.439 32.1128 26.2204C32.8942 27.0018 33.3332 28.0616 33.3332 29.1667C33.3332 30.2717 32.8942 31.3315 32.1128 32.1129C31.3314 32.8943 30.2716 33.3333 29.1665 33.3333H16.6665" stroke="#217BF4" stroke-width="3" stroke-linecap="round" stroke-linejoin="round"/>
<path id="Vector_3" d="M25 37.5V12.5" stroke="#217BF4" stroke-width="3" stroke-linecap="round" stroke-linejoin="round"/>
</g>
</g>
<defs>
<clipPath id="clip0_0_1">
<rect width="1920" height="6605" fill="white" transform="translate(-1524 -2139)"/>
</clipPath>
</defs>
</svg>
